<?xml version="1.0" encoding="utf-8"?>
<!-- Generator: Adobe Illustrator 19.2.1, SVG Export Plug-In . SVG Version: 6.00 Build 0)  -->
<svg version="1.1" id="layer" xmlns="http://www.w3.org/2000/svg" xmlns:xlink="http://www.w3.org/1999/xlink" x="0px" y="0px"
	 viewBox="0 0 652 652" style="enable-background:new 0 0 652 652;" xml:space="preserve">
<style type="text/css">
	.st0{fill:#5AA5E1;}
</style>
<path class="st0" d="M65,273.3c-7.9-2.4-16.4-0.6-22.6,4.8c0,0-13.6,9.2-16.1,47.4c0,0-0.7,6.4,4.8,7.4c0,0,5.8,1.2,6.4-3.7
	c0.7-4.8,0.7-29,11.3-41.4c1-1.3,2.4-2.3,3.9-2.8c2.3-1.7,4.2-3.8,5.8-6.1c1.7-2.3,3.9-4.2,6.4-5.5"/>
<path class="st0" d="M85.3,272.4c-7.3-1.7-15,0.2-20.7,5.1c0,0-12.7,7.8-15.9,38.9c-0.5,3.8-0.7,7.7-0.5,11.5
	c0.3,2.6,2.4,4.7,5.1,4.8c0,0,5.8,0.5,6-4.8l0.5-7.4c0,0,0.9-20.7,9.2-31.1L71,291C73.7,283.5,78.7,277,85.3,272.4z"/>
<path class="st0" d="M105.8,272.4c-8.4-1.6-17.1,1.2-23,7.4c0,0-9.7,8.5-12.4,29.9c0,0-1.2,11.5-1.4,17c0,3,2.1,5.5,5.1,6
	c3,0.2,5.6-2.1,5.8-5c0,0,0,0,0,0v-0.3c0,0,0.5-26,10.1-38l2.3,1.4c2.7-7.3,7.4-13.6,13.6-18.2V272.4z"/>
<path class="st0" d="M121,272.2c-9,0.3-17.1,5.3-21.4,13.1c0,0-9.2,13.4-9.2,40.5c0,0-0.5,6.4,4.6,7.1c3.1,0.2,5.7-2.1,6-5.1
	c0-0.1,0-0.3,0-0.4v-0.9c0,0,0.2-26.8,10.6-37.8c0,0,9.2,10.8,9.9,36.6c0,0,0.2,17.7,3.7,27.4c2.1-8.5,3.2-17.2,3.5-26
	c0-1.8,0.7-3.5,2.1-4.6c0,0,1.6-0.7,1.2-3.5c0,0-2.3-22.3-9.7-35.2c0,0,15.9-1.2,18.9,30.6c0,2.7,0.9,5.4,2.5,7.6
	c1.4,1.1,2.1,2.8,2.1,4.6c0.3,6.3,0,12.6-0.9,18.9c-0.2,2.6,0.2,5.2,1.2,7.6c2.2-6.9,3.3-14.2,3-21.4c0,0-0.5-8.5,3.7-11.5
	c0,0-0.2-24.2-9.9-37.3C137.5,275.7,129.4,271.9,121,272.2L121,272.2z"/>
<path class="st0" d="M168.4,381c7.8,2.5,16.4,0.7,22.6-4.8c0,0,13.6-9.2,16.1-47.4c0,0,0.7-6.4-4.8-7.4c0,0-5.8-1.2-6.4,3.7
	c-0.7,4.8-0.7,29-11.3,41.4c-1,1.3-2.4,2.3-3.9,2.8c-2.3,1.7-4.2,3.8-5.8,6.2C173.1,377.8,170.9,379.7,168.4,381"/>
<path class="st0" d="M147.9,382c7.3,1.7,15-0.2,20.7-5.1c0,0,12.7-7.8,15.9-38.9c0.5-3.8,0.7-7.7,0.5-11.5c-0.2-2.7-2.4-4.8-5.1-4.8
	c0,0-5.8-0.5-6,4.8l-0.5,7.4c0,0-0.9,20.7-9.2,31.1l-2.1-1.6C159.6,370.9,154.6,377.5,147.9,382z"/>
<path class="st0" d="M127.6,382c8.4,1.6,17.1-1.2,23-7.4c0,0,9.7-8.5,12.4-29.9c0,0,1.2-11.5,1.4-17c0-3-2.1-5.5-5.1-6
	c-3-0.2-5.6,2.1-5.8,5c0,0,0,0,0,0v0.6c0,0-0.2,26-10.1,38l-2.3-1.4c-2.7,7.2-7.4,13.5-13.6,18.2L127.6,382z"/>
<path class="st0" d="M112.2,382.2c9-0.3,17.1-5.3,21.4-13.1c0,0,9.2-13.4,9.2-40.5c0,0,0.5-6.4-4.6-7.1c-3.1-0.2-5.7,2.1-6,5.1
	c0,0.1,0,0.3,0,0.4v0.9c0,0-0.2,26.9-10.6,37.8c0,0-9.2-10.8-9.9-36.6c0,0-0.2-17.7-3.7-27.4c-2.1,8.5-3.2,17.2-3.5,26
	c0,1.8-0.7,3.5-2.1,4.6c0,0-1.6,0.7-1.2,3.5c0,0,2.3,22.3,9.7,35.2c0,0-15.9,1.2-18.9-30.6c0-2.7-0.9-5.4-2.5-7.6
	c-1.4-1.1-2.1-2.8-2.1-4.6c-0.3-6.3,0-12.6,0.9-18.9c0.1-2.6-0.3-5.2-1.2-7.6c-2.3,6.9-3.2,14.2-2.8,21.4c0,0,0.5,8.5-3.7,11.5
	c0,0,0.5,24.2,9.9,37.3C95.8,378.6,103.8,382.5,112.2,382.2L112.2,382.2z"/>
<path d="M225.5,303.2l5.7-17.4c0.6-2.5,3.1-4,5.6-3.3c0.1,0,0.3,0.1,0.4,0.1c0.2,0,0.7,0.2,0.9,0.2c2.5,1.2,3.5,4.2,2.3,6.6
	c0,0,0,0,0,0l-9.9,24.2c-1.4,3.7-3.9,5.1-7.4,3.7c-1.6-0.7-2.9-2-3.5-3.7l-9.7-24.4c-1.1-2.5,0-5.5,2.5-6.7c2.5-1.1,5.5,0,6.7,2.5
	c0,0.2,0.1,0.3,0.2,0.5l6,17.7L225.5,303.2z"/>
<path d="M243.7,287.1c0-1.3,0.5-2.5,1.4-3.5c1.8-1.9,4.9-2,6.8-0.1c0,0,0.1,0.1,0.1,0.1l0,0c0.9,0.9,1.4,2.2,1.4,3.5v25.8
	c0.1,2.7-2.1,5-4.8,5.1c0,0,0,0,0,0l0,0c-2.8,0-5-2.3-5.1-5.1v-25.8H243.7z M244.6,269.2c2.1-2.2,5.7-2.3,7.9-0.2
	c0.1,0.1,0.1,0.1,0.2,0.2c2.2,2.1,2.3,5.7,0.2,7.9c-0.1,0.1-0.1,0.1-0.2,0.2c-2.1,2.2-5.7,2.3-7.9,0.2c-0.1-0.1-0.1-0.1-0.2-0.2
	c-1.2-1-1.9-2.4-1.8-3.9C242.8,271.7,243.4,270.2,244.6,269.2z"/>
<path d="M277.5,282.1c7.4,0.9,9.9,4.1,9,7.4c-0.3,2-2.1,3.5-4.1,3.5h-0.9l-0.5-0.2l-0.9-0.2l-0.7-0.2l-0.9-0.2
	c-6-1.8-10.8,1.6-10.8,8.3s5.1,10.1,11.5,7.8l1.2-0.5l0.5-0.2c2.1-0.9,4.6,0,5.5,2.1c0.2,0.4,0.3,0.8,0.2,1.2c0.5,2.5-1.4,4.8-6,6.2
	c-1.2,0.5-2.4,0.7-3.7,0.7c-9.9,0.8-18.6-6.7-19.3-16.6c-0.8-9.9,6.7-18.6,16.6-19.3C275.2,282,276.3,282.1,277.5,282.1z"/>
<path d="M294.1,282.5v-5.8c0-2.7,2.2-4.8,4.8-4.8c2.7,0,4.8,2.2,4.8,4.8l0,0v5.8h3c1.2,0,2.4,0.5,3.2,1.4c1.7,1.6,1.8,4.2,0.3,5.9
	c-0.1,0.1-0.2,0.2-0.3,0.3l0,0c-0.9,0.9-2,1.4-3.2,1.4h-3v21.4c0,1.3-0.5,2.5-1.4,3.5c-1.9,1.8-5,1.8-6.9,0l0,0
	c-0.9-0.9-1.4-2.2-1.4-3.5v-21.4h-1.8c-1.2,0-2.3-0.4-3.2-1.2c-1.7-1.6-1.8-4.3-0.2-6l0.2-0.2c0.9-0.9,2-1.4,3.2-1.4L294.1,282.5z"
	/>
<path d="M313.2,286.9c0.1-2.7,2.4-4.8,5.1-4.8c3-0.2,5.1,1.6,4.8,3.5v0.5c0.2-0.2,0.5-0.7,0.9-0.9c3.7-4.1,8.1-4.1,10.1-1.2
	c1.4,1.9,1.1,4.5-0.7,6c-0.2,0.2-0.7,0.5-0.9,0.7l-0.5,0.2l-1.4,0.5c-1,0.4-2,0.8-3,1.4c-3.2,1.8-4.1,3.5-4.1,5.1v14.7
	c0,2.8-2.3,5-5.1,5.1l0,0c-2.6,0.1-4.8-2-4.8-4.6c0-0.1,0-0.2,0-0.2l0,0C313.6,312.7,313.2,286.9,313.2,286.9z"/>
<path d="M336.9,290.5c3-5.2,8.5-8.4,14.5-8.5c9.9-0.4,18.4,7.1,19.1,17c0.6,10-7.1,18.5-17,19.1s-18.5-7.1-19.1-17l0,0v-0.9
	C334.4,296.7,335.3,293.4,336.9,290.5L336.9,290.5z M344.5,301.5c0.9,6,4.4,8.5,8.5,7.6c2.8-0.5,5.1-3.2,5.5-7.6
	c0.2-1.1,0.2-2.2,0-3.2c0-3.4-2.2-6.4-5.5-7.4c-4.1-0.9-7.8,1.6-8.5,7.4V301.5z"/>
<path d="M372.8,287.1c0.2-2.7,2.3-4.9,5.1-5.1c2-0.4,3.9,0.8,4.4,2.8v1c1.7-2,4.1-3.3,6.7-3.7c1.6-0.2,3.2-0.2,4.8,0
	c6.3,0.5,11.1,6,10.6,12.4c0,0,0,0,0,0.1l0,0V313c0,2.7-2.2,5-5,5c-2.5,0-4.6-1.8-4.9-4.3v-17.5c0-1.6-0.7-3.1-1.8-4.1
	c-2.1-2.2-5.7-2.3-7.9-0.2c-0.1,0.1-0.1,0.1-0.2,0.2l0,0c-1.1,1.1-1.7,2.6-1.6,4.1V313c-0.3,2.7-2.7,4.7-5.4,4.5
	c-2.4-0.2-4.2-2.1-4.5-4.5v-25.9H372.8z"/>
<path d="M436.6,303c0.3,1.3,0.8,2.4,1.6,3.5c2.5,3.2,7.4,3.9,12.9,1.2c3.2-1.8,4.1-1.8,5.8-1.2c0.9,0.4,1.7,1.1,2.1,2.1
	c1.4,3.5-3,9.4-15,9.4c-9.7,0.4-17.9-7.1-18.4-16.8c0-1.9,0.2-3.7,0.7-5.5c1.4-6.8,6.7-12.1,13.6-13.4c7.7-1.4,15.3,2.7,18.4,9.9
	c0.8,1.7,1.2,3.6,1.4,5.5c0.5,3.9-0.9,5.5-4.1,5.5L436.6,303z M450.2,296.8c0-0.3-0.1-0.5-0.2-0.7c-0.9-4.6-4.4-6.9-8.1-6
	c-2.7,0.8-4.8,3-5.3,5.8v0.7h13.6L450.2,296.8z"/>
<path d="M463.5,287.1c0.2-2.6,2.2-4.8,4.8-5.1c2-0.4,3.9,0.8,4.4,2.8v1c1.7-2,4.1-3.3,6.7-3.7c1.6-0.2,3.2-0.2,4.8,0
	c6.3,0.5,11.1,6,10.6,12.4c0,0,0,0,0,0.1l0,0V313c0,2.7-2.2,5-5,5c-2.5,0-4.6-1.8-4.9-4.3v-17.5c0-1.6-0.7-3.1-1.8-4.1
	c-2.1-2.2-5.7-2.3-7.9-0.2c-0.1,0.1-0.1,0.1-0.2,0.2l0,0c-1.1,1.1-1.7,2.6-1.6,4.1V313c-0.3,2.7-2.7,4.7-5.4,4.5
	c-2.4-0.2-4.2-2.1-4.5-4.5V287.1z"/>
<path d="M510,303c0.3,1.3,0.8,2.4,1.6,3.5c2.5,3.2,7.4,3.9,12.9,1.2c3.2-1.8,4.1-1.8,5.8-1.2c0.9,0.4,1.7,1.1,2.1,2.1
	c1.4,3.5-3,9.4-15,9.4c-9.7,0.4-17.9-7.1-18.4-16.8c0-1.9,0.2-3.7,0.7-5.5c1.4-6.8,6.7-12.1,13.6-13.4c7.7-1.4,15.3,2.7,18.4,9.9
	c0.8,1.7,1.2,3.6,1.4,5.5c0.5,3.9-0.9,5.5-4.1,5.5L510,303z M523.6,296.8c0-0.3-0.1-0.5-0.2-0.7c-1.2-4.6-4.4-6.9-8.1-6
	c-2.7,0.8-4.8,3-5.3,5.8c0,0.3-0.1,0.5-0.2,0.7h13.8L523.6,296.8z"/>
<path d="M536.9,286.9c0.1-2.7,2.4-4.8,5.1-4.8c3-0.2,5.1,1.6,4.8,3.5v0.5c0.2-0.2,0.5-0.7,0.9-0.9c3.9-4.1,8.1-4.1,10.1-1.2
	c1.4,1.9,1.1,4.5-0.7,6c-0.4,0.3-0.7,0.5-1.2,0.7l-0.5,0.2l-1.4,0.5c-1,0.4-2,0.8-3,1.4c-3.2,1.8-4.1,3.5-4.1,5.1v14.7
	c0,2.8-2.3,5.1-5.1,5.1c-2.8,0-5.1-2.3-5.1-5.1L536.9,286.9L536.9,286.9z"/>
<path d="M582.5,285.5c0.2-2.1,2.1-3.6,4.1-3.5h0.5c2.7,0.2,4.9,2.3,5.1,5.1v25.8c0,12.9-7.6,19.8-20.9,18.4
	c-2.6-0.2-5.1-0.9-7.4-2.1c-4.8-2.3-5.5-5.5-3.2-8.1c1.3-1.4,3.3-1.8,5.1-1.2l0,0l2.1,0.9c0.4,0.3,0.9,0.4,1.4,0.5
	c8.5,3,13.4-0.5,13.4-6.9v-1.4c-3.7,5.3-12.7,6.2-19.1,0c-4.4-4.8-6.1-11.4-4.6-17.7c0.4-2.4,1.3-4.6,2.5-6.7
	c5.5-8.7,16.6-9.7,21.6-3.5L582.5,285.5z M570.1,306.7c2.3,2.8,6.4,3.2,9.2,0.9c0.5-0.5,0.9-0.7,1.2-1.2c1.2-1.9,1.8-4,1.8-6.2
	c0-4.4-1.6-7.1-4.1-8.5c-4.4-2.1-9.2,0.7-9.9,6.7c0,0.7-0.2,1.2-0.2,1.8C568,302.6,568.7,304.8,570.1,306.7z"/>
<path d="M597.5,282.5c2.4-1.1,5.2-0.1,6.3,2.2c0,0.1,0.1,0.2,0.1,0.3c0,0.2,0.2,0.5,0.2,0.7l6.2,16.6l6.2-16.6
	c0.6-2.6,3.3-4.3,5.9-3.6c2.5,0.6,4.1,3,3.7,5.5c0,0.5-0.2,1-0.5,1.4l-16.1,39.4c-0.7,2.7-3.4,4.4-6.1,3.7c0,0-0.1,0-0.1,0
	c-0.2,0-0.5-0.2-0.7-0.2c-2.5-1-3.7-3.9-2.8-6.4v-0.2l4.6-10.6L594,288.7C593.8,286.1,595.1,283.7,597.5,282.5z"/>
<path d="M279.1,333.2c1.4,0,2.3,0.5,2.3,1.8s-0.9,2.1-2.5,2.1h-1.4v-3.7C278,333.2,278.6,333.1,279.1,333.2z M282.6,343.3
	c0.7-0.7,1.1-1.6,1.2-2.5c0-0.8-0.2-1.6-0.7-2.3c-0.6-0.7-1.4-1.1-2.3-1.2c0.5-0.2,1.2-0.5,1.4-0.9c0.5-0.4,0.7-1,0.7-1.6
	c0.1-0.9-0.3-1.7-0.9-2.3c-0.8-0.6-1.8-0.9-2.8-0.9h-3.2v12.7h3.7C280.6,344.3,281.7,344,282.6,343.3L282.6,343.3z M281.4,338.7
	c0.9,1.1,0.9,2.6,0,3.7c-0.7,0.5-1.5,0.7-2.3,0.7h-1.4v-4.8h1.4C279.9,338.3,280.7,338.4,281.4,338.7z"/>
<polygon points="309,344.4 301.7,344.4 301.7,331.8 303.3,331.8 303.3,342.8 309,342.8 "/>
<path d="M326.3,340.5v-8.6h1.6v8.5c-0.1,1.3,0.8,2.4,2,2.5c0.2,0,0.3,0,0.5,0c0.7,0,1.5-0.3,2.1-0.7c0.5-0.6,0.7-1.3,0.7-2.1v-8.5
	h1.6v8.7c0,1.1-0.4,2.2-1.2,3c-1.9,1.4-4.5,1.4-6.4,0c-0.7-0.7-1-1.7-0.9-2.8V340.5z"/>
<polygon points="364.1,333.4 358.3,333.4 358.3,336.8 362.5,336.8 362.5,338.2 358.3,338.2 358.3,342.8 363.8,342.8 363.8,344.4 
	356.5,344.4 356.5,331.8 364.1,331.8 "/>
<path d="M405.5,333.2c2.3,0,3.5,0.7,3.5,2.3s-1.2,2.5-3.2,2.5h-1.2v-4.6h0.9V333.2z M406,339.6c3.2,0,4.8-1.4,4.8-4.4
	c0-2.5-1.8-3.7-5.5-3.7H403v12.7h1.6v-4.8L406,339.6L406,339.6z"/>
<path d="M430.6,334.5c0.5-0.9,1.5-1.5,2.5-1.4c2.3,0,3.7,1.6,3.7,4.8c0.1,1.3-0.3,2.6-0.9,3.7c-0.6,0.9-1.7,1.4-2.8,1.4
	c-1,0-1.9-0.5-2.3-1.4c-0.7-1.1-1-2.4-0.9-3.7C429.7,336.8,429.9,335.6,430.6,334.5L430.6,334.5z M429.2,342.8
	c0.9,1.1,2.2,1.8,3.7,1.8c1.5,0.1,3-0.6,3.9-1.8c1-1.4,1.5-3.1,1.4-4.8c0-1.6-0.5-3.2-1.4-4.6c-0.9-1.2-2.4-1.8-3.9-1.6
	c-1.4,0-2.8,0.7-3.7,1.8C427.4,336.4,427.4,340,429.2,342.8z"/>
<polygon points="469.7,331.8 465.8,344.7 465.4,344.7 462.4,335.9 459.6,344.7 458.9,344.7 455,331.8 456.8,331.8 459.4,340.5 
	462.1,331.8 462.8,331.8 465.4,340.5 468.1,331.8 "/>
<polygon points="494.6,333.4 488.8,333.4 488.8,336.8 493,336.8 493,338.2 488.8,338.2 488.8,342.8 494.4,342.8 494.4,344.4 
	487,344.4 487,331.8 494.6,331.8 "/>
<path d="M515.1,333.2c0.8,0,1.6,0.2,2.3,0.5c0.5,0.4,0.8,1,0.7,1.6c0,0.7-0.2,1.3-0.7,1.8c-0.7,0.4-1.5,0.5-2.3,0.5h-1.2v-4.1
	C513.9,333.4,515.1,333.2,515.1,333.2z M517.6,338.7c0.7-0.2,1.3-0.6,1.8-1.2c0.4-0.6,0.7-1.3,0.7-2.1c0-2.3-1.6-3.7-4.6-3.7h-3.2
	v12.7h1.8v-5.5h1.8l3.5,5.3h2.1l-3.7-5.8L517.6,338.7z"/>
</svg>
